<svg width="17" height="20" viewBox="0 0 17 20" fill="none" xmlns="http://www.w3.org/2000/svg">
<path d="M15.2177 16.399C15.2177 16.399 10.9904 13.1312 10.9904 10.5268C10.9904 9.2776 13.3493 7.42843 14.8871 6.06626C15.7813 5.27225 16.6442 4.79937 16.6442 4.79937C16.9921 4.37237 17.0373 3.59953 16.9782 3.109C16.9086 2.55849 16.7033 2.1703 16.2962 1.73977C15.8892 1.31277 15.5412 1.24219 15.0124 1.24219C14.4696 1.24219 14.1356 1.43628 13.7285 1.90916L12.7404 3.03137C12.7787 3.26428 12.7996 3.50072 12.7996 3.74421C12.7996 6.13684 10.886 8.07776 8.52703 8.07776C6.16809 8.07776 4.2545 6.13684 4.2545 3.74421C4.2545 3.51483 4.27189 3.29251 4.30669 3.07371L3.28378 1.90916C2.86627 1.43275 2.53226 1.24219 1.9895 1.24219C1.46065 1.24219 1.11272 1.31277 0.705649 1.73977C0.298575 2.16677 0.0932988 2.55849 0.0237135 3.109C-0.0389132 3.59953 0.00631722 4.37237 0.357723 4.79937C0.357723 4.79937 1.22058 5.27225 2.11475 6.06626C3.65259 7.43196 6.01153 9.2776 6.01153 10.5268C6.01153 13.1312 1.78422 16.399 1.78422 16.399C1.31104 16.7696 0.068944 17.0625 0.0967781 18.0717C0.110695 18.6399 0.267262 19.0104 0.667377 19.4198C1.06749 19.8292 1.62417 19.8997 2.15998 19.9738C2.71666 20.0515 3.55517 19.9597 3.87874 19.6527C3.87874 19.6527 8.17563 13.6464 8.26957 13.5512C8.36351 13.4559 8.49572 13.4629 8.49572 13.4629C8.49572 13.4629 8.64185 13.4559 8.73579 13.5512C8.82973 13.6464 13.064 19.5821 13.064 19.5821C13.3876 19.8891 14.2852 20.0479 14.8454 19.9703C15.3847 19.8962 15.9379 19.8256 16.338 19.4163C16.7381 19.0069 16.8912 18.6364 16.9086 18.0682C16.9295 17.0625 15.6908 16.7696 15.2177 16.399Z" fill="white"/>
<path d="M8.52007 7.48137C6.48471 7.48137 4.83206 5.80865 4.83206 3.74068C4.83206 1.67625 6.48123 0 8.52007 0C10.5554 0 12.2081 1.67272 12.2081 3.74068C12.2046 5.80865 10.5554 7.48137 8.52007 7.48137Z" fill="white"/>
</svg>
